<svg width="48" height="48" viewBox="0 0 48 48" fill="none" xmlns="http://www.w3.org/2000/svg">
<rect width="48" height="48" rx="10" fill="black"/>
<path d="M5.27273 18.3636H8.79545L11.0682 23.0909H11.1591L13.4318 18.3636H16.9545L12.6818 26.3409V30H9.54545V26.3409L5.27273 18.3636ZM19.8196 30H16.4105L20.2514 18.3636H24.5696L28.4105 30H25.0014L22.456 21.5682H22.3651L19.8196 30ZM19.1832 25.4091H25.5923V27.7727H19.1832V25.4091ZM29.5312 30V18.3636H32.6903V27.4545H37.3949V30H29.5312ZM40.4219 30.1818C39.9825 30.1818 39.6056 30.0284 39.2912 29.7216C38.9806 29.411 38.8272 29.0341 38.831 28.5909C38.8272 28.1591 38.9806 27.7898 39.2912 27.483C39.6056 27.1761 39.9825 27.0227 40.4219 27.0227C40.8385 27.0227 41.206 27.1761 41.5241 27.483C41.8461 27.7898 42.009 28.1591 42.0128 28.5909C42.009 28.8864 41.9313 29.1553 41.7798 29.3977C41.6321 29.6364 41.4389 29.8277 41.2003 29.9716C40.9616 30.1117 40.7022 30.1818 40.4219 30.1818Z" fill="white"/>
</svg>
